<svg width="105" height="87" viewBox="0 0 105 87" fill="none" xmlns="http://www.w3.org/2000/svg">
<mask id="path-1-inside-1_108_77" fill="white">
<path fill-rule="evenodd" clip-rule="evenodd" d="M52 79C72.4345 79 89 62.4345 89 42C89 21.5655 72.4345 5 52 5C31.5655 5 15 21.5655 15 42C15 62.4345 31.5655 79 52 79ZM52 80C72.9868 80 90 62.9868 90 42C90 21.0132 72.9868 4 52 4C31.0132 4 14 21.0132 14 42C14 62.9868 31.0132 80 52 80Z"/>
</mask>
<path d="M88 42C88 61.8823 71.8823 78 52 78V80C72.9868 80 90 62.9868 90 42H88ZM52 6C71.8823 6 88 22.1177 88 42H90C90 21.0132 72.9868 4 52 4V6ZM16 42C16 22.1177 32.1177 6 52 6V4C31.0132 4 14 21.0132 14 42H16ZM52 78C32.1177 78 16 61.8823 16 42H14C14 62.9868 31.0132 80 52 80V78ZM89 42C89 62.4345 72.4345 79 52 79V81C73.5391 81 91 63.5391 91 42H89ZM52 5C72.4345 5 89 21.5655 89 42H91C91 20.4609 73.5391 3 52 3V5ZM15 42C15 21.5655 31.5655 5 52 5V3C30.4609 3 13 20.4609 13 42H15ZM52 79C31.5655 79 15 62.4345 15 42H13C13 63.5391 30.4609 81 52 81V79Z" fill="white" mask="url(#path-1-inside-1_108_77)"/>
<mask id="path-3-inside-2_108_77" fill="white">
<path fill-rule="evenodd" clip-rule="evenodd" d="M52 81C73.5391 81 91 63.5391 91 42C91 20.4609 73.5391 3 52 3C30.4609 3 13 20.4609 13 42C13 63.5391 30.4609 81 52 81ZM52 82C74.0914 82 92 64.0914 92 42C92 19.9086 74.0914 2 52 2C29.9086 2 12 19.9086 12 42C12 64.0914 29.9086 82 52 82Z"/>
</mask>
<path d="M90 42C90 62.9868 72.9868 80 52 80V82C74.0914 82 92 64.0914 92 42H90ZM52 4C72.9868 4 90 21.0132 90 42H92C92 19.9086 74.0914 2 52 2V4ZM14 42C14 21.0132 31.0132 4 52 4V2C29.9086 2 12 19.9086 12 42H14ZM52 80C31.0132 80 14 62.9868 14 42H12C12 64.0914 29.9086 82 52 82V80ZM91 42C91 63.5391 73.5391 81 52 81V83C74.6437 83 93 64.6437 93 42H91ZM52 3C73.5391 3 91 20.4609 91 42H93C93 19.3563 74.6437 1 52 1V3ZM13 42C13 20.4609 30.4609 3 52 3V1C29.3563 1 11 19.3563 11 42H13ZM52 81C30.4609 81 13 63.5391 13 42H11C11 64.6437 29.3563 83 52 83V81Z" fill="white" mask="url(#path-3-inside-2_108_77)"/>
<mask id="path-5-inside-3_108_77" fill="white">
<path fill-rule="evenodd" clip-rule="evenodd" d="M52 77C71.33 77 87 61.33 87 42C87 22.67 71.33 7 52 7C32.67 7 17 22.67 17 42C17 61.33 32.67 77 52 77ZM52 78C71.8823 78 88 61.8823 88 42C88 22.1177 71.8823 6 52 6C32.1177 6 16 22.1177 16 42C16 61.8823 32.1177 78 52 78Z"/>
</mask>
<path d="M86 42C86 60.7777 70.7777 76 52 76V78C71.8823 78 88 61.8823 88 42H86ZM52 8C70.7777 8 86 23.2223 86 42H88C88 22.1177 71.8823 6 52 6V8ZM18 42C18 23.2223 33.2223 8 52 8V6C32.1177 6 16 22.1177 16 42H18ZM52 76C33.2223 76 18 60.7777 18 42H16C16 61.8823 32.1177 78 52 78V76ZM87 42C87 61.33 71.33 77 52 77V79C72.4345 79 89 62.4345 89 42H87ZM52 7C71.33 7 87 22.67 87 42H89C89 21.5655 72.4345 5 52 5V7ZM17 42C17 22.67 32.67 7 52 7V5C31.5655 5 15 21.5655 15 42H17ZM52 77C32.67 77 17 61.33 17 42H15C15 62.4345 31.5655 79 52 79V77Z" fill="white" mask="url(#path-5-inside-3_108_77)"/>
<mask id="path-7-inside-4_108_77" fill="white">
<path fill-rule="evenodd" clip-rule="evenodd" d="M52 75C70.2254 75 85 60.2254 85 42C85 23.7746 70.2254 9 52 9C33.7746 9 19 23.7746 19 42C19 60.2254 33.7746 75 52 75ZM52 76C70.7777 76 86 60.7777 86 42C86 23.2223 70.7777 8 52 8C33.2223 8 18 23.2223 18 42C18 60.7777 33.2223 76 52 76Z"/>
</mask>
<path d="M84 42C84 59.6731 69.6731 74 52 74V76C70.7777 76 86 60.7777 86 42H84ZM52 10C69.6731 10 84 24.3269 84 42H86C86 23.2223 70.7777 8 52 8V10ZM20 42C20 24.3269 34.3269 10 52 10V8C33.2223 8 18 23.2223 18 42H20ZM52 74C34.3269 74 20 59.6731 20 42H18C18 60.7777 33.2223 76 52 76V74ZM85 42C85 60.2254 70.2254 75 52 75V77C71.33 77 87 61.33 87 42H85ZM52 9C70.2254 9 85 23.7746 85 42H87C87 22.67 71.33 7 52 7V9ZM19 42C19 23.7746 33.7746 9 52 9V7C32.67 7 17 22.67 17 42H19ZM52 75C33.7746 75 19 60.2254 19 42H17C17 61.33 32.67 77 52 77V75Z" fill="white" mask="url(#path-7-inside-4_108_77)"/>
<path d="M9.5 40C9.5 40.8284 8.82843 41.5 8 41.5C7.17157 41.5 6.5 40.8284 6.5 40C6.5 39.1716 7.17157 38.5 8 38.5C8.82843 38.5 9.5 39.1716 9.5 40Z" stroke="white"/>
<path d="M1.5 40C1.5 40.2761 1.27614 40.5 1 40.5C0.723858 40.5 0.5 40.2761 0.5 40C0.5 39.7239 0.723858 39.5 1 39.5C1.27614 39.5 1.5 39.7239 1.5 40Z" stroke="white"/>
<path d="M94.5034 38.8263C94.5354 37.9985 95.2324 37.3534 96.0602 37.3854C96.888 37.4173 97.5331 38.1143 97.5012 38.9422C97.4692 39.77 96.7722 40.4151 95.9444 40.3831C95.1166 40.3512 94.4714 39.6542 94.5034 38.8263Z" stroke="white"/>
<path d="M52 2L28 86.5H34.5L52 2ZM52 2L61.5 86.5H77L52 2ZM12 40L91.5 39.5V43L12 40.5" stroke="white"/>
<path d="M102.497 39.1351C102.508 38.8592 102.74 38.6441 103.016 38.6548C103.292 38.6654 103.507 38.8978 103.496 39.1737C103.486 39.4496 103.254 39.6647 102.978 39.654C102.702 39.6434 102.487 39.411 102.497 39.1351Z" stroke="white"/>
</svg>
