<svg width="105" height="87" viewBox="0 0 105 87" fill="none" xmlns="http://www.w3.org/2000/svg">
<path fill-rule="evenodd" clip-rule="evenodd" d="M52 79C72.4345 79 89 62.4345 89 42C89 21.5655 72.4345 5 52 5C31.5655 5 15 21.5655 15 42C15 62.4345 31.5655 79 52 79ZM52 80C72.9868 80 90 62.9868 90 42C90 21.0132 72.9868 4 52 4C31.0132 4 14 21.0132 14 42C14 62.9868 31.0132 80 52 80Z" fill="#F4B840"/>
<path fill-rule="evenodd" clip-rule="evenodd" d="M52 81C73.5391 81 91 63.5391 91 42C91 20.4609 73.5391 3 52 3C30.4609 3 13 20.4609 13 42C13 63.5391 30.4609 81 52 81ZM52 82C74.0914 82 92 64.0914 92 42C92 19.9086 74.0914 2 52 2C29.9086 2 12 19.9086 12 42C12 64.0914 29.9086 82 52 82Z" fill="#F4B840"/>
<path fill-rule="evenodd" clip-rule="evenodd" d="M52 77C71.33 77 87 61.33 87 42C87 22.67 71.33 7 52 7C32.67 7 17 22.67 17 42C17 61.33 32.67 77 52 77ZM52 78C71.8823 78 88 61.8823 88 42C88 22.1177 71.8823 6 52 6C32.1177 6 16 22.1177 16 42C16 61.8823 32.1177 78 52 78Z" fill="#F4B840"/>
<path fill-rule="evenodd" clip-rule="evenodd" d="M52 75C70.2254 75 85 60.2254 85 42C85 23.7746 70.2254 9 52 9C33.7746 9 19 23.7746 19 42C19 60.2254 33.7746 75 52 75ZM52 76C70.7777 76 86 60.7777 86 42C86 23.2223 70.7777 8 52 8C33.2223 8 18 23.2223 18 42C18 60.7777 33.2223 76 52 76Z" fill="#F4B840"/>
<path d="M10 40C10 41.1046 9.10457 42 8 42C6.89543 42 6 41.1046 6 40C6 38.8954 6.89543 38 8 38C9.10457 38 10 38.8954 10 40Z" fill="#F4B840"/>
<path d="M2 40C2 40.5523 1.55228 41 1 41C0.447715 41 0 40.5523 0 40C0 39.4477 0.447715 39 1 39C1.55228 39 2 39.4477 2 40Z" fill="#F4B840"/>
<path d="M94.0038 38.807C94.0464 37.7033 94.9757 36.8431 96.0795 36.8857C97.1832 36.9284 98.0434 37.8577 98.0008 38.9615C97.9581 40.0652 97.0288 40.9254 95.9251 40.8828C94.8213 40.8401 93.9611 39.9108 94.0038 38.807Z" fill="#F4B840"/>
<path d="M52 2L28 86.5H34.5L52 2ZM52 2L61.5 86.5H77L52 2ZM12 40L91.5 39.5V43L12 40.5" stroke="#F4B840"/>
<path d="M101.998 39.1158C102.019 38.5639 102.484 38.1338 103.035 38.1552C103.587 38.1765 104.017 38.6411 103.996 39.193C103.975 39.7449 103.51 40.175 102.958 40.1537C102.406 40.1323 101.976 39.6677 101.998 39.1158Z" fill="#F4B840"/>
</svg>
